<svg width="24" height="24" viewBox="0 0 24 24" fill="none" xmlns="http://www.w3.org/2000/svg">
<path d="M12.6722 14.9889C11.1 14.1833 9.81111 12.9 9.01111 11.3278L10.1237 10.498C10.4432 10.2598 10.5907 9.85451 10.4991 9.4666L10.0985 7.77018C9.99196 7.31884 9.58905 7 9.1253 7H7.55556C7.25 7 7 7.25 7 7.55556C7 12.7722 11.2278 17 16.4444 17C16.75 17 17 16.75 17 16.4444V14.8733C17 14.4102 16.682 14.0077 16.2315 13.9005L14.5355 13.497C14.1465 13.4044 13.7399 13.5524 13.5014 13.8733L12.6722 14.9889Z" fill="#00395C" fill-opacity="0.8"/>
</svg>
